<svg xmlns="http://www.w3.org/2000/svg" xmlns:xlink="http://www.w3.org/1999/xlink" version="1.0" viewBox="0 0 87.6 98.5"><defs><linearGradient id="a"><stop offset="0" stop-color="#d0bcba"/><stop offset="1" stop-color="#fefdfd"/></linearGradient><linearGradient id="c"><stop offset="0" stop-color="#d0bcba"/><stop offset="1" stop-color="#6c6c6c"/></linearGradient><linearGradient id="b"><stop offset="0" stop-color="#978888"/><stop offset="1" stop-color="#fbfcfc"/></linearGradient><linearGradient id="d" x1="-33.8" x2="14.2" y1="36.5" y2="50.5" gradientTransform="translate(178.8 49.4)" gradientUnits="userSpaceOnUse"><stop offset="0" stop-color="#be9e70"/><stop offset="1" stop-color="#694c30"/></linearGradient><linearGradient id="e" x1="195.9" x2="196.2" y1="89" y2="70.7" gradientUnits="userSpaceOnUse"><stop offset="0" stop-color="#e40102"/><stop offset="1" stop-color="#bb7874"/></linearGradient><linearGradient id="f" x1="195.9" x2="195.9" y1="73" y2="103.6" gradientUnits="userSpaceOnUse"><stop offset="0" stop-color="#7c1f16"/><stop offset="1" stop-color="#7c1f16" stop-opacity="0"/></linearGradient><linearGradient id="g" x1="197.6" x2="196.7" y1="81.1" y2="88.7" gradientTransform="translate(0 .2)" gradientUnits="userSpaceOnUse"><stop offset="0" stop-color="#aa090a"/><stop offset="1" stop-color="#e50102"/></linearGradient><linearGradient xlink:href="#a" id="i" x1="281.2" x2="279.6" y1="94" y2="92.5" gradientTransform="translate(-34.4 9.2)" gradientUnits="userSpaceOnUse"/><linearGradient xlink:href="#a" id="j" x1="213.3" x2="223.5" y1="113.9" y2="122.7" gradientTransform="translate(29.5 -14)" gradientUnits="userSpaceOnUse"/><linearGradient xlink:href="#b" id="k" x1="221.6" x2="219.2" y1="35" y2="35" gradientTransform="matrix(1.078 0 0 1.0746 -55.1 33.9)" gradientUnits="userSpaceOnUse"/><linearGradient xlink:href="#c" id="l" x1="250.1" x2="250.1" y1="38.6" y2="26.5" gradientTransform="translate(-68 39)" gradientUnits="userSpaceOnUse"/><linearGradient xlink:href="#b" id="m" x1="221.6" x2="219.2" y1="35" y2="35" gradientTransform="matrix(1.078 0 0 1.0746 -47.6 33.9)" gradientUnits="userSpaceOnUse"/><linearGradient xlink:href="#c" id="n" x1="250.1" x2="250.1" y1="38.6" y2="26.5" gradientTransform="translate(-60.5 39)" gradientUnits="userSpaceOnUse"/><linearGradient xlink:href="#b" id="o" x1="221.6" x2="219.2" y1="35" y2="35" gradientTransform="matrix(1.078 0 0 1.0746 -40 33.9)" gradientUnits="userSpaceOnUse"/><linearGradient xlink:href="#c" id="p" x1="250.1" x2="250.1" y1="38.6" y2="26.5" gradientTransform="translate(-53 39)" gradientUnits="userSpaceOnUse"/><linearGradient xlink:href="#b" id="q" x1="221.6" x2="219.2" y1="35" y2="35" gradientTransform="matrix(1.078 0 0 1.0746 -32.6 33.9)" gradientUnits="userSpaceOnUse"/><linearGradient xlink:href="#c" id="r" x1="250.1" x2="250.1" y1="38.6" y2="26.5" gradientTransform="translate(-45.5 39)" gradientUnits="userSpaceOnUse"/><linearGradient xlink:href="#b" id="s" x1="221.6" x2="219.2" y1="35" y2="35" gradientTransform="matrix(1.078 0 0 1.0746 -25 33.9)" gradientUnits="userSpaceOnUse"/><linearGradient xlink:href="#c" id="t" x1="250.1" x2="250.1" y1="38.6" y2="26.5" gradientTransform="translate(-38 39)" gradientUnits="userSpaceOnUse"/><radialGradient id="h" cx="196.9" cy="132.3" r="21" gradientTransform="matrix(0 .98878 -1.0116 0 343.8 -116.1)" gradientUnits="userSpaceOnUse"><stop offset="0" stop-color="#fffefe"/><stop offset="1" stop-color="#d5d7da"/></radialGradient></defs><g transform="matrix(1.78746 0 0 1.85973 -259.2 -121.6)"><rect width="48" height="48" x="146" y="70.4" fill="#694c30" rx="1.6" ry="1.5"/><rect width="48" height="48" x="145" y="69.4" fill="url(#d)" rx="1.6" ry="1.5"/></g><path fill="url(#e)" stroke="url(#f)" stroke-linecap="round" stroke-width=".6" d="M177 73.3h41.4v15.4H177z" transform="matrix(1.8247 0 0 1.82257 -316.8 -121.9)"/><path fill="url(#g)" d="M177 74v14.5h41.2V86c-10.5-.1-14-2.4-18.8-4.4-4.3-1.8-13.5-.1-17.8-1.3-3.2-1.4-3-2.7-4.5-6.2z" transform="matrix(1.8247 0 0 1.82257 -316.8 -121.9)"/><g style="line-height:1.25" word-spacing="0"><path fill="#fff" d="M208.4 68h1.8q1.2 0 1.8.4.5.3.5 1 0 .6-.2 1-.2.3-.6.3.5.2.7.5.3.4.3 1 0 .7-.6 1.1-.5.5-1.5.5h-2.2zm1.3 2.3h.7l.7-.1q.2-.2.2-.6 0-.3-.2-.4-.3-.2-.8-.2h-.6zm0 1v1.5h.7q.6 0 .8-.2.2-.2.2-.6 0-.7-1-.7zm6.5-2h.4v1.2h-.4q-.6 0-1 .2-.3.3-.3.8v2.3h-1.2v-4.4h1l.1.7.6-.6.8-.2zm4.3 4.5-.2-.6q-.2.3-.6.5-.3.2-.8.2-.7 0-1.1-.5-.4-.4-.4-1.2v-2.8h1.2v2.5l.1.8q.2.2.6.2.5 0 .7-.3.2-.4.2-1.1v-2.1h1.2v4.4zm6.1 0h-1.2v-2.6q0-.5-.2-.7-.1-.2-.5-.2t-.6.3q-.2.3-.2 1.1v2h-1.2v-4.3h.9l.2.5q.2-.3.5-.4l.8-.2q1 0 1.3.6h.1q.2-.3.6-.4.3-.2.7-.2.8 0 1.2.4.3.4.3 1.2v2.9h-1.2v-2.6l-.1-.7q-.2-.2-.5-.2-.5 0-.7.3-.2.3-.2 1zm6.8 0-.3-.6q-.3.4-.6.5-.3.2-.9.2-.6 0-1-.4-.3-.4-.3-1 0-.7.5-1 .5-.4 1.4-.4h.8v-.2q0-.7-.7-.7-.5 0-1.2.3l-.4-.8q.7-.4 1.7-.4.9 0 1.3.4.5.4.5 1.2v2.9zm-.4-2h-.5l-.7.1q-.3.2-.3.6 0 .5.6.5.4 0 .7-.3.2-.2.2-.6zm2.4-3.5q0-.6.6-.6.7 0 .7.6l-.2.4-.5.1q-.6 0-.6-.5zm1.2 5.5h-1.2v-4.4h1.2zm3.7-4.5h.4v1.2h-.4q-.6 0-1 .2-.2.3-.2.8v2.3h-1.2v-4.4h.9l.2.7.6-.6q.3-.2.7-.2zm3 .9-.6.2q-.2.2-.2.7h1.7q0-.5-.3-.7-.2-.2-.6-.2zm.2 3.7q-1 0-1.6-.6-.6-.6-.6-1.7 0-1 .5-1.7.6-.6 1.5-.6 1 0 1.5.5.5.6.5 1.5v.6h-2.8q0 .5.3.8.3.3.8.3l.7-.1.8-.3v1l-.7.2h-.9z" aria-label="Brumaire" font-family="Open Sans" font-size="8" font-weight="700" letter-spacing="0" style="-inkscape-font-specification:'Open Sans'" transform="translate(-370.2 -96.5) scale(1.8247)"/></g><path fill="url(#h)" stroke="#afa497" stroke-linecap="round" stroke-width=".6" d="M206.2 75.1h41.4v29.4h-41.4z" transform="translate(-370.2 -96.5) scale(1.8247)"/><path fill="none" stroke="#c60002" stroke-opacity=".1" d="M227.4 90.9h41.2m-41.2 4h41.2M227.4 115h41.2m-41.2-4h41.2m-41.2-4.1h41.2m-41.2-4h41.2m-41.2-4h41.2" transform="matrix(1.8247 0 0 1.82257 -408.3 -119.2)"/><path fill="url(#i)" fill-rule="evenodd" stroke="url(#j)" stroke-width=".5" d="M247.5 97.6a16 16 0 0 1-5.7 6.7c2.1.3 4-.5 5-1 .4-1.6.7-4 .7-5.7z" opacity=".5" transform="translate(-370.2 -96.5) scale(1.8247)"/><path d="M24.5 75h5.3V59.8l-5.5 1v-4l5.4-1.1h5.8v19.1h5.3V79H24.5zm29.6-6.4q-1.7 0-2.6 1-.9.9-.9 2.6 0 1.7 1 2.7.8.9 2.5.9t2.6-1q.9-.9.9-2.6 0-1.7-1-2.6-.8-1-2.5-1zm-4.4-2q-2.1-.6-3.2-1.9-1-1.3-1-3.3 0-3 2.2-4.5 2.2-1.6 6.4-1.6 4.3 0 6.5 1.6 2.2 1.5 2.2 4.5 0 2-1.1 3.3-1.1 1.3-3.2 2 2.3.6 3.5 2.1 1.3 1.5 1.3 3.7 0 3.5-2.4 5.3-2.2 1.7-6.8 1.7-4.5 0-6.9-1.7Q45 76 45 72.5q0-2.2 1.2-3.7 1.3-1.5 3.6-2.1zm1.4-4.6q0 1.4.8 2.1.8.8 2.2.8 1.4 0 2.2-.8.8-.7.8-2.1 0-1.4-.8-2.1-.8-.8-2.2-.8-1.4 0-2.2.8-.8.7-.8 2z" aria-label="18" font-family="sans-serif" font-size="17.5" font-weight="700" letter-spacing="0" style="line-height:1.25" word-spacing="0"/><g stroke-linecap="round" stroke-width=".7" transform="matrix(1.8247 0 0 1.82257 -315.8 -119.3)"><rect width="2.9" height="11.4" x="180.6" y="65.8" fill="url(#k)" stroke="url(#l)" rx="1.4" ry="2.2"/><rect width="2.9" height="11.4" x="188.1" y="65.8" fill="url(#m)" stroke="url(#n)" rx="1.4" ry="2.2"/><rect width="2.9" height="11.4" x="195.7" y="65.8" fill="url(#o)" stroke="url(#p)" rx="1.4" ry="2.2"/><rect width="2.9" height="11.4" x="203.2" y="65.8" fill="url(#q)" stroke="url(#r)" rx="1.4" ry="2.2"/><rect width="2.9" height="11.4" x="210.7" y="65.8" fill="url(#s)" stroke="url(#t)" rx="1.4" ry="2.2"/></g></svg>