<svg xmlns="http://www.w3.org/2000/svg" xmlns:xlink="http://www.w3.org/1999/xlink" version="1.0" viewBox="0 0 87.6 98.5"><defs><linearGradient id="a"><stop offset="0" stop-color="#d0bcba"/><stop offset="1" stop-color="#fefdfd"/></linearGradient><linearGradient id="c"><stop offset="0" stop-color="#d0bcba"/><stop offset="1" stop-color="#6c6c6c"/></linearGradient><linearGradient id="b"><stop offset="0" stop-color="#978888"/><stop offset="1" stop-color="#fbfcfc"/></linearGradient><linearGradient id="d" x1="-33.8" x2="14.2" y1="36.5" y2="50.5" gradientTransform="translate(178.8 49.4)" gradientUnits="userSpaceOnUse"><stop offset="0" stop-color="#be9e70"/><stop offset="1" stop-color="#694c30"/></linearGradient><linearGradient id="e" x1="195.9" x2="196.2" y1="89" y2="70.7" gradientUnits="userSpaceOnUse"><stop offset="0" stop-color="#e40102"/><stop offset="1" stop-color="#bb7874"/></linearGradient><linearGradient id="f" x1="195.9" x2="195.9" y1="73" y2="103.6" gradientUnits="userSpaceOnUse"><stop offset="0" stop-color="#7c1f16"/><stop offset="1" stop-color="#7c1f16" stop-opacity="0"/></linearGradient><linearGradient id="g" x1="197.6" x2="196.7" y1="81.1" y2="88.7" gradientTransform="translate(0 .2)" gradientUnits="userSpaceOnUse"><stop offset="0" stop-color="#aa090a"/><stop offset="1" stop-color="#e50102"/></linearGradient><linearGradient xlink:href="#a" id="i" x1="281.2" x2="279.6" y1="94" y2="92.5" gradientTransform="translate(-34.4 9.2)" gradientUnits="userSpaceOnUse"/><linearGradient xlink:href="#a" id="j" x1="213.3" x2="223.5" y1="113.9" y2="122.7" gradientTransform="translate(29.5 -14)" gradientUnits="userSpaceOnUse"/><linearGradient xlink:href="#b" id="k" x1="221.6" x2="219.2" y1="35" y2="35" gradientTransform="matrix(1.08 0 0 1.07 -55.1 33.9)" gradientUnits="userSpaceOnUse"/><linearGradient xlink:href="#c" id="l" x1="250.1" x2="250.1" y1="38.6" y2="26.5" gradientTransform="translate(-68 39)" gradientUnits="userSpaceOnUse"/><linearGradient xlink:href="#b" id="m" x1="221.6" x2="219.2" y1="35" y2="35" gradientTransform="matrix(1.08 0 0 1.07 -47.6 33.9)" gradientUnits="userSpaceOnUse"/><linearGradient xlink:href="#c" id="n" x1="250.1" x2="250.1" y1="38.6" y2="26.5" gradientTransform="translate(-60.5 39)" gradientUnits="userSpaceOnUse"/><linearGradient xlink:href="#b" id="o" x1="221.6" x2="219.2" y1="35" y2="35" gradientTransform="matrix(1.08 0 0 1.07 -40 33.9)" gradientUnits="userSpaceOnUse"/><linearGradient xlink:href="#c" id="p" x1="250.1" x2="250.1" y1="38.6" y2="26.5" gradientTransform="translate(-53 39)" gradientUnits="userSpaceOnUse"/><linearGradient xlink:href="#b" id="q" x1="221.6" x2="219.2" y1="35" y2="35" gradientTransform="matrix(1.08 0 0 1.07 -32.6 33.9)" gradientUnits="userSpaceOnUse"/><linearGradient xlink:href="#c" id="r" x1="250.1" x2="250.1" y1="38.6" y2="26.5" gradientTransform="translate(-45.5 39)" gradientUnits="userSpaceOnUse"/><linearGradient xlink:href="#b" id="s" x1="221.6" x2="219.2" y1="35" y2="35" gradientTransform="matrix(1.08 0 0 1.07 -25 33.9)" gradientUnits="userSpaceOnUse"/><linearGradient xlink:href="#c" id="t" x1="250.1" x2="250.1" y1="38.6" y2="26.5" gradientTransform="translate(-38 39)" gradientUnits="userSpaceOnUse"/><radialGradient id="h" cx="196.9" cy="132.3" r="21" gradientTransform="matrix(0 .99 -1.01 0 343.8 -116.1)" gradientUnits="userSpaceOnUse"><stop offset="0" stop-color="#fffefe"/><stop offset="1" stop-color="#d5d7da"/></radialGradient></defs><g transform="matrix(1.79 0 0 1.86 -259.2 -121.6)"><rect width="48" height="48" x="146" y="70.4" fill="#694c30" rx="1.6" ry="1.5"/><rect width="48" height="48" x="145" y="69.4" fill="url(#d)" rx="1.6" ry="1.5"/></g><path fill="url(#e)" stroke="url(#f)" stroke-linecap="round" stroke-width=".6" d="M177 73.3h41.4v15.4H177z" transform="matrix(1.82 0 0 1.82 -316.8 -121.9)"/><path fill="url(#g)" d="M177 74v14.5h41.2V86c-10.5-.1-14-2.4-18.8-4.4-4.3-1.8-13.5-.1-17.8-1.3-3.2-1.4-3-2.7-4.5-6.2z" transform="matrix(1.82 0 0 1.82 -316.8 -121.9)"/><path fill="url(#h)" stroke="#afa497" stroke-linecap="round" stroke-width=".6" d="M206.2 75.1h41.4v29.4h-41.4z" transform="matrix(1.82 0 0 1.82 -370.2 -96.5)"/><path fill="none" stroke="#c60002" stroke-opacity=".1" stroke-width="1.82" d="M5.57 46.24h74.98M5.57 53.52h74.98M5.57 90.1h74.98M5.57 82.82h74.98M5.57 75.36h74.98M5.57 68.08h74.98M5.57 60.8h74.98"/><path fill="url(#i)" fill-rule="evenodd" stroke="url(#j)" stroke-width=".5" d="M247.5 97.6a16 16 0 0 1-5.7 6.7c2.1.3 4-.5 5-1 .4-1.6.7-4 .7-5.7z" opacity=".5" transform="matrix(1.82 0 0 1.82 -370.2 -96.5)"/><g stroke-linecap="round" stroke-width=".7" transform="matrix(1.82 0 0 1.82 -315.8 -119.3)"><rect width="2.9" height="11.4" x="180.6" y="65.8" fill="url(#k)" stroke="url(#l)" rx="1.4" ry="2.2"/><rect width="2.9" height="11.4" x="188.1" y="65.8" fill="url(#m)" stroke="url(#n)" rx="1.4" ry="2.2"/><rect width="2.9" height="11.4" x="195.7" y="65.8" fill="url(#o)" stroke="url(#p)" rx="1.4" ry="2.2"/><rect width="2.9" height="11.4" x="203.2" y="65.8" fill="url(#q)" stroke="url(#r)" rx="1.4" ry="2.2"/><rect width="2.9" height="11.4" x="210.7" y="65.8" fill="url(#s)" stroke="url(#t)" rx="1.4" ry="2.2"/></g><path fill="#fff" d="M20.64 37.27h-3.2l-3.5-5.61-1.19.85v4.76H9.93V23.94h2.82v6.1l1.11-1.57 3.61-4.53h3.14l-4.65 5.9zm8.68 0-.37-1.3h-.15q-.45.7-1.27 1.1-.82.38-1.86.38-1.8 0-2.71-.95-.91-.97-.91-2.78v-6.64h2.78v5.95q0 1.1.39 1.66.4.55 1.25.55 1.16 0 1.68-.78t.52-2.59v-4.79h2.78v10.19zm14.18 0h-2.8v-5.95q0-1.1-.37-1.65-.36-.56-1.16-.56-1.06 0-1.55.79-.48.78-.48 2.58v4.79h-2.78V27.08h2.12l.38 1.3h.15q.41-.7 1.19-1.09.77-.4 1.78-.4 2.28 0 3.1 1.5h.24q.41-.72 1.2-1.1.8-.4 1.8-.4 1.74 0 2.62.9.9.88.9 2.84v6.64h-2.8v-5.95q0-1.1-.37-1.65-.36-.56-1.15-.56-1.02 0-1.53.73-.5.73-.5 2.32zm11.87-5.54 1.21-1.55 2.86-3.1h3.13l-4.05 4.42 4.3 5.77H59.6l-2.94-4.13-1.19.96v3.17H52.7V23.09h2.78v6.32l-.15 2.32zm11.15-7.79.13.2q-.46 1.8-1.6 4.37h-2q.62-2.7.9-4.57zm9.02 13.33-.37-1.3h-.15q-.44.7-1.26 1.1-.82.38-1.87.38-1.8 0-2.71-.95-.91-.97-.91-2.78v-6.64h2.78v5.95q0 1.1.4 1.66.38.55 1.24.55 1.17 0 1.69-.78.51-.78.51-2.59v-4.79h2.78v10.19z" aria-label="Kumkʼu"/><path d="M43.82 54.65q3.83 0 6.16 1.75 2.35 1.73 2.35 4.69 0 2.04-1.13 3.64-1.13 1.59-3.64 2.85 2.98 1.6 4.28 3.35 1.31 1.73 1.31 3.81 0 3.28-2.57 5.29Q48.01 82 43.82 82q-4.38 0-6.87-1.86-2.5-1.85-2.5-5.26 0-2.28 1.2-4.05 1.22-1.77 3.9-3.12-2.28-1.44-3.28-3.08-1-1.64-1-3.59 0-2.86 2.37-4.63t6.18-1.77zm-4.16 19.9q0 1.58 1.1 2.45 1.09.88 2.99.88 2.1 0 3.13-.9 1.04-.9 1.04-2.39 0-1.22-1.04-2.27-1.02-1.08-3.34-2.28-3.88 1.78-3.88 4.52zm4.12-15.78q-1.44 0-2.33.75-.88.73-.88 1.97 0 1.1.7 1.97.7.85 2.55 1.76 1.78-.83 2.5-1.7t.7-2.03q0-1.26-.9-1.99-.92-.73-2.34-.73z" aria-label="8"/></svg>